<?xml version="1.0" encoding="UTF-8"?>
<svg version="1.1" xmlns="http://www.w3.org/2000/svg" width="238" height="256">
<path d="M0 0 C2.82299805 1.32836914 2.82299805 1.32836914 5.76171875 3.03515625 C6.86644531 3.67130859 7.97117187 4.30746094 9.109375 4.96289062 C10.30222557 5.66251796 11.49492994 6.36239462 12.6875 7.0625 C13.93840769 7.78779001 15.18971701 8.51238773 16.44140625 9.23632812 C25.94450333 14.74571858 35.38805976 20.35752603 44.82397461 25.98095703 C53.08093905 30.89310725 61.39888862 35.68775107 69.75 40.4375 C96.86909958 55.86909958 96.86909958 55.86909958 100 59 C100.26006222 61.10900688 100.26006222 61.10900688 100.27415466 63.76925659 C100.28412979 64.77592377 100.29410492 65.78259094 100.30438232 66.81976318 C100.305047 67.92837708 100.30571167 69.03699097 100.30639648 70.17919922 C100.31472 71.34349457 100.32304352 72.50778992 100.33161926 73.70736694 C100.35580201 77.57317404 100.36450146 81.43881269 100.37109375 85.3046875 C100.37779054 87.30627548 100.38448938 89.30786347 100.39152867 91.30945027 C100.41301572 97.60653498 100.42233697 103.90356576 100.42553711 110.20068359 C100.42917245 116.69806118 100.45906391 123.19496639 100.50094169 129.69219959 C100.53562461 135.26849359 100.5510852 140.84463092 100.55178314 146.42103207 C100.55257674 149.75248044 100.56370928 153.08333829 100.58978081 156.41469955 C100.61654855 160.13089193 100.61191197 163.84577312 100.59936523 167.56201172 C100.61419952 168.66657715 100.62903381 169.77114258 100.64431763 170.90917969 C100.572368 178.36900866 100.572368 178.36900866 97.63287354 181.60957336 C96.32960114 182.29783455 96.32960114 182.29783455 95 183 C94.10063721 183.55598877 93.20127441 184.11197754 92.2746582 184.68481445 C91.29327881 185.2387085 90.31189941 185.79260254 89.30078125 186.36328125 C88.18767578 186.99492187 87.07457031 187.6265625 85.92773438 188.27734375 C85.33951904 188.60847168 84.75130371 188.93959961 84.14526367 189.28076172 C81.63143941 190.6958971 79.12305265 192.12055205 76.61422729 193.54452515 C75.31659948 194.28088741 74.01868436 195.0167436 72.7204895 195.75210571 C66.45996781 199.29958075 60.22810482 202.89595077 54 206.5 C47.23544122 210.41121473 40.46492344 214.31131609 33.67578125 218.1796875 C33.06415634 218.52831848 32.45253143 218.87694946 31.82237244 219.23614502 C29.38600647 220.62465167 26.9495556 222.01299758 24.51144409 223.3984375 C18.99199401 226.53509527 13.47917486 229.670264 8.078125 233.0078125 C7.38162842 233.43787598 6.68513184 233.86793945 5.9675293 234.31103516 C4.23280178 235.39371143 2.50838111 236.49285784 0.78515625 237.59375 C-2.26322203 239.13290313 -3.64695285 239.30004262 -7 239 C-9.17456055 238.04467773 -9.17456055 238.04467773 -11.38671875 236.68359375 C-12.65008057 235.91994507 -12.65008057 235.91994507 -13.93896484 235.14086914 C-14.84598145 234.57875732 -15.75299805 234.01664551 -16.6875 233.4375 C-18.67227498 232.23548833 -20.65799141 231.03503016 -22.64453125 229.8359375 C-24.20421631 228.88992676 -24.20421631 228.88992676 -25.79541016 227.92480469 C-31.11308147 224.73079885 -36.49458777 221.64923181 -41.875 218.5625 C-53.25867485 212.01282707 -64.60978078 205.40895853 -75.94873047 198.78222656 C-79.18481006 196.89205366 -82.4223067 195.00432676 -85.66015625 193.1171875 C-86.75247559 192.48047119 -87.84479492 191.84375488 -88.97021484 191.18774414 C-91.06288327 189.96800016 -93.15565135 188.74842713 -95.24853516 187.52905273 C-96.19132324 186.97934814 -97.13411133 186.42964355 -98.10546875 185.86328125 C-98.93199951 185.38157471 -99.75853027 184.89986816 -100.61010742 184.40356445 C-101.39877197 183.94038818 -102.18743652 183.47721191 -103 183 C-103.90532471 182.48719482 -104.81064941 181.97438965 -105.7434082 181.44604492 C-108 180 -108 180 -109 178 C-109.10298605 176.44035449 -109.14379432 174.87640959 -109.15390015 173.31340027 C-109.16250061 172.32500656 -109.17110107 171.33661285 -109.17996216 170.31826782 C-109.18422211 169.22992645 -109.18848206 168.14158508 -109.19287109 167.02026367 C-109.20104858 165.87708176 -109.20922607 164.73389984 -109.21765137 163.55607605 C-109.2425341 159.76004568 -109.2590278 155.96405274 -109.2734375 152.16796875 C-109.27876118 150.8742013 -109.28408485 149.58043385 -109.28956985 148.24746132 C-109.31080452 142.81129016 -109.32993466 137.37513122 -109.34119225 131.93892956 C-109.35743128 124.14850108 -109.3906076 116.35857138 -109.44759309 108.56833094 C-109.49096234 102.43019868 -109.50693721 96.29226209 -109.51332474 90.15398598 C-109.52005491 87.54283407 -109.53532236 84.93168992 -109.55921555 82.32063866 C-109.59072429 78.66934386 -109.59092462 75.01931416 -109.58349609 71.36791992 C-109.59990143 70.28565125 -109.61630676 69.20338257 -109.63320923 68.08831787 C-109.57194453 60.74660448 -109.57194453 60.74660448 -106.61863708 56.89141846 C-104.0922468 55.06662905 -101.62600137 53.42782095 -98.88671875 51.94140625 C-97.89768555 51.39758301 -96.90865234 50.85375977 -95.88964844 50.29345703 C-94.83293945 49.72224121 -93.77623047 49.15102539 -92.6875 48.5625 C-90.43519533 47.32343529 -88.18391958 46.08249871 -85.93359375 44.83984375 C-84.78487793 44.20675293 -83.63616211 43.57366211 -82.45263672 42.92138672 C-77.01061623 39.89291117 -71.6262525 36.76840097 -66.25 33.625 C-64.74469727 32.74533569 -64.74469727 32.74533569 -63.20898438 31.84790039 C-56.98792227 28.19868853 -50.83503365 24.45791463 -44.7109375 20.6484375 C-41.25463042 18.54676374 -37.72467637 16.61400176 -34.16015625 14.703125 C-30.00338504 12.46288736 -25.87696483 10.1695707 -21.75 7.875 C-20.99307861 7.45492676 -20.23615723 7.03485352 -19.45629883 6.60205078 C-18.72306396 6.1945459 -17.9898291 5.78704102 -17.234375 5.3671875 C-16.51830078 4.97370117 -15.80222656 4.58021484 -15.06445312 4.17480469 C-13.72304248 3.411457 -12.40168895 2.61131393 -11.10742188 1.77050781 C-6.86750719 -0.94052435 -4.82125168 -1.21100761 0 0 Z " fill="#F9E3E3" transform="translate(122,10)"/>
<path d="M0 0 C2.61712286 2.36271395 4.17321749 4.83435853 5.86328125 7.91796875 C6.41298584 8.91231934 6.96269043 9.90666992 7.52905273 10.93115234 C8.11759033 12.00574707 8.70612793 13.0803418 9.3125 14.1875 C10.57889472 16.47627639 11.8471711 18.76401251 13.1171875 21.05078125 C13.44071701 21.63359863 13.76424652 22.21641602 14.09757996 22.81689453 C17.29121148 28.55415852 20.60578928 34.21721677 23.9375 39.875 C29.00345044 48.49333295 33.91846461 57.18647679 38.75 65.9375 C43.18120943 73.9610334 47.66354996 81.93867148 52.34228516 89.8203125 C55.81319837 95.667904 59.23205937 101.54431433 62.625 107.4375 C63.15891357 108.35708496 63.69282715 109.27666992 64.24291992 110.22412109 C64.73252197 111.07699707 65.22212402 111.92987305 65.7265625 112.80859375 C66.38519287 113.95026001 66.38519287 113.95026001 67.05712891 115.11499023 C68 117 68 117 68 119 C37.39748141 120.02737027 6.80366984 120.08853416 -23.8125 120.0625 C-24.82626709 120.06164398 -25.84003418 120.06078796 -26.88452148 120.05990601 C-39.58969811 120.04839219 -52.29484975 120.02814163 -65 120 C-64.31194798 116.25087124 -63.35328048 113.42205603 -61.515625 110.0703125 C-60.99943604 109.12236816 -60.48324707 108.17442383 -59.95141602 107.19775391 C-59.38994873 106.18374512 -58.82848145 105.16973633 -58.25 104.125 C-57.37589478 102.52857666 -57.37589478 102.52857666 -56.48413086 100.89990234 C-52.0462087 92.82108236 -47.50854247 84.79973339 -42.94824219 76.78955078 C-38.85823505 69.58247357 -34.90843566 62.30691095 -31 55 C-25.49739852 44.71514869 -19.83213629 34.53549198 -14.0625 24.3984375 C-10.64967528 18.40007404 -7.3049189 12.36466764 -3.98144531 6.31640625 C-1.10596161 1.10596161 -1.10596161 1.10596161 0 0 Z " fill="#CE0303" transform="translate(116,49)"/>
<path d="M0 0 C2.82299805 1.32836914 2.82299805 1.32836914 5.76171875 3.03515625 C6.86644531 3.67130859 7.97117187 4.30746094 9.109375 4.96289062 C10.30222557 5.66251796 11.49492994 6.36239462 12.6875 7.0625 C13.93840769 7.78779001 15.18971701 8.51238773 16.44140625 9.23632812 C25.94450333 14.74571858 35.38805976 20.35752603 44.82397461 25.98095703 C53.08093905 30.89310725 61.39888862 35.68775107 69.75 40.4375 C96.86909958 55.86909958 96.86909958 55.86909958 100 59 C100.26006222 61.10900688 100.26006222 61.10900688 100.27415466 63.76925659 C100.28412979 64.77592377 100.29410492 65.78259094 100.30438232 66.81976318 C100.305047 67.92837708 100.30571167 69.03699097 100.30639648 70.17919922 C100.31472 71.34349457 100.32304352 72.50778992 100.33161926 73.70736694 C100.35580201 77.57317404 100.36450146 81.43881269 100.37109375 85.3046875 C100.37779054 87.30627548 100.38448938 89.30786347 100.39152867 91.30945027 C100.41301572 97.60653498 100.42233697 103.90356576 100.42553711 110.20068359 C100.42917245 116.69806118 100.45906391 123.19496639 100.50094169 129.69219959 C100.53562461 135.26849359 100.5510852 140.84463092 100.55178314 146.42103207 C100.55257674 149.75248044 100.56370928 153.08333829 100.58978081 156.41469955 C100.61654855 160.13089193 100.61191197 163.84577312 100.59936523 167.56201172 C100.61419952 168.66657715 100.62903381 169.77114258 100.64431763 170.90917969 C100.572368 178.36900866 100.572368 178.36900866 97.63287354 181.60957336 C96.32960114 182.29783455 96.32960114 182.29783455 95 183 C94.10063721 183.55598877 93.20127441 184.11197754 92.2746582 184.68481445 C91.29327881 185.2387085 90.31189941 185.79260254 89.30078125 186.36328125 C88.18767578 186.99492187 87.07457031 187.6265625 85.92773438 188.27734375 C85.33951904 188.60847168 84.75130371 188.93959961 84.14526367 189.28076172 C81.63143941 190.6958971 79.12305265 192.12055205 76.61422729 193.54452515 C75.31659948 194.28088741 74.01868436 195.0167436 72.7204895 195.75210571 C66.45996781 199.29958075 60.22810482 202.89595077 54 206.5 C47.23544122 210.41121473 40.46492344 214.31131609 33.67578125 218.1796875 C33.06415634 218.52831848 32.45253143 218.87694946 31.82237244 219.23614502 C29.38600647 220.62465167 26.9495556 222.01299758 24.51144409 223.3984375 C18.99199401 226.53509527 13.47917486 229.670264 8.078125 233.0078125 C7.38162842 233.43787598 6.68513184 233.86793945 5.9675293 234.31103516 C4.23280178 235.39371143 2.50838111 236.49285784 0.78515625 237.59375 C-2.26322203 239.13290313 -3.64695285 239.30004262 -7 239 C-9.17456055 238.04467773 -9.17456055 238.04467773 -11.38671875 236.68359375 C-12.65008057 235.91994507 -12.65008057 235.91994507 -13.93896484 235.14086914 C-14.84598145 234.57875732 -15.75299805 234.01664551 -16.6875 233.4375 C-18.67227498 232.23548833 -20.65799141 231.03503016 -22.64453125 229.8359375 C-24.20421631 228.88992676 -24.20421631 228.88992676 -25.79541016 227.92480469 C-31.11308147 224.73079885 -36.49458777 221.64923181 -41.875 218.5625 C-53.25867485 212.01282707 -64.60978078 205.40895853 -75.94873047 198.78222656 C-79.18481006 196.89205366 -82.4223067 195.00432676 -85.66015625 193.1171875 C-86.75247559 192.48047119 -87.84479492 191.84375488 -88.97021484 191.18774414 C-91.06288327 189.96800016 -93.15565135 188.74842713 -95.24853516 187.52905273 C-96.19132324 186.97934814 -97.13411133 186.42964355 -98.10546875 185.86328125 C-98.93199951 185.38157471 -99.75853027 184.89986816 -100.61010742 184.40356445 C-101.39877197 183.94038818 -102.18743652 183.47721191 -103 183 C-103.90532471 182.48719482 -104.81064941 181.97438965 -105.7434082 181.44604492 C-108 180 -108 180 -109 178 C-109.10298605 176.44035449 -109.14379432 174.87640959 -109.15390015 173.31340027 C-109.16250061 172.32500656 -109.17110107 171.33661285 -109.17996216 170.31826782 C-109.18422211 169.22992645 -109.18848206 168.14158508 -109.19287109 167.02026367 C-109.20104858 165.87708176 -109.20922607 164.73389984 -109.21765137 163.55607605 C-109.2425341 159.76004568 -109.2590278 155.96405274 -109.2734375 152.16796875 C-109.27876118 150.8742013 -109.28408485 149.58043385 -109.28956985 148.24746132 C-109.31080452 142.81129016 -109.32993466 137.37513122 -109.34119225 131.93892956 C-109.35743128 124.14850108 -109.3906076 116.35857138 -109.44759309 108.56833094 C-109.49096234 102.43019868 -109.50693721 96.29226209 -109.51332474 90.15398598 C-109.52005491 87.54283407 -109.53532236 84.93168992 -109.55921555 82.32063866 C-109.59072429 78.66934386 -109.59092462 75.01931416 -109.58349609 71.36791992 C-109.59990143 70.28565125 -109.61630676 69.20338257 -109.63320923 68.08831787 C-109.57194453 60.74660448 -109.57194453 60.74660448 -106.61863708 56.89141846 C-104.0922468 55.06662905 -101.62600137 53.42782095 -98.88671875 51.94140625 C-97.89768555 51.39758301 -96.90865234 50.85375977 -95.88964844 50.29345703 C-94.83293945 49.72224121 -93.77623047 49.15102539 -92.6875 48.5625 C-90.43519533 47.32343529 -88.18391958 46.08249871 -85.93359375 44.83984375 C-84.78487793 44.20675293 -83.63616211 43.57366211 -82.45263672 42.92138672 C-77.01061623 39.89291117 -71.6262525 36.76840097 -66.25 33.625 C-64.74469727 32.74533569 -64.74469727 32.74533569 -63.20898438 31.84790039 C-56.98792227 28.19868853 -50.83503365 24.45791463 -44.7109375 20.6484375 C-41.25463042 18.54676374 -37.72467637 16.61400176 -34.16015625 14.703125 C-30.00338504 12.46288736 -25.87696483 10.1695707 -21.75 7.875 C-20.99307861 7.45492676 -20.23615723 7.03485352 -19.45629883 6.60205078 C-18.72306396 6.1945459 -17.9898291 5.78704102 -17.234375 5.3671875 C-16.51830078 4.97370117 -15.80222656 4.58021484 -15.06445312 4.17480469 C-13.72304248 3.411457 -12.40168895 2.61131393 -11.10742188 1.77050781 C-6.86750719 -0.94052435 -4.82125168 -1.21100761 0 0 Z M-4 3 C-4.06058594 4.04800781 -4.12117188 5.09601562 -4.18359375 6.17578125 C-4.26801738 7.55470048 -4.35266447 8.93360605 -4.4375 10.3125 C-4.47681641 11.00279297 -4.51613281 11.69308594 -4.55664062 12.40429688 C-4.74927415 15.47161535 -5.02322717 18.06968152 -6 21 C-6.33 15.72 -6.66 10.44 -7 5 C-10.12969259 6.25187704 -12.83176822 7.3625149 -15.72265625 8.9609375 C-16.76413818 9.53642334 -16.76413818 9.53642334 -17.82666016 10.12353516 C-18.93340088 10.74301025 -18.93340088 10.74301025 -20.0625 11.375 C-20.83384277 11.80474121 -21.60518555 12.23448242 -22.39990234 12.67724609 C-31.72260305 17.91042109 -40.8665195 23.44511785 -50 29 C-49.34 29.33 -48.68 29.66 -48 30 C-45.98074133 29.23399418 -45.98074133 29.23399418 -43.875 28.0625 C-43.15054688 27.68222656 -42.42609375 27.30195312 -41.6796875 26.91015625 C-41.12539062 26.60980469 -40.57109375 26.30945313 -40 26 C-39.67 26.33 -39.34 26.66 -39 27 C-40.59576199 28.50893816 -42.20189911 30.00691076 -43.8125 31.5 C-44.70582031 32.3353125 -45.59914062 33.170625 -46.51953125 34.03125 C-49 36 -49 36 -52 36 C-50.68 34.35 -49.36 32.7 -48 31 C-56.4048554 31.97827573 -62.54548342 35.17404583 -69.6875 39.5625 C-70.73099609 40.18785645 -71.77449219 40.81321289 -72.84960938 41.45751953 C-75.90731219 43.29280224 -78.95373477 45.14581839 -82 47 C-83.63028742 47.97730346 -85.26167513 48.9527756 -86.89453125 49.92578125 C-90.27062087 51.93816065 -93.63834142 53.96361067 -97 56 C-96.34 56.33 -95.68 56.66 -95 57 C-95 57.66 -95 58.32 -95 59 C-97.31 59.66 -99.62 60.32 -102 61 C-100.61309397 66.6704223 -99.09722905 72.28643007 -97.47802734 77.89453125 C-97.23389603 78.7442601 -96.98976471 79.59398895 -96.73823547 80.46946716 C-95.93877904 83.25085663 -95.13737405 86.0316805 -94.3359375 88.8125 C-93.77816896 90.75159285 -93.22052309 92.69072099 -92.66299438 94.62988281 C-91.20109284 99.71334491 -89.73753334 104.79632819 -88.27362061 109.87921143 C-86.77776053 115.0741324 -85.28347924 120.26950743 -83.7890625 125.46484375 C-80.86091445 135.64367258 -77.93101355 145.82199595 -75 156 C-74.01 155.67 -73.02 155.34 -72 155 C-71.505 156.98 -71.505 156.98 -71 159 C-28.43 159.495 -28.43 159.495 15 160 C3.42640153 160.64297769 -8.05659485 161.17833649 -19.6328125 161.31640625 C-21.13166754 161.3370707 -22.63051802 161.35806887 -24.12936401 161.37937927 C-28.00559702 161.43362355 -31.88187359 161.48344772 -35.75817871 161.53222656 C-39.74116728 161.583172 -43.72409543 161.63846999 -47.70703125 161.69335938 C-55.47130249 161.79973955 -63.23562522 161.90143213 -71 162 C-71 162.66 -71 163.32 -71 164 C-69.67487122 165.3037111 -69.67487122 165.3037111 -67.9375 166.625 C-64.50965811 169.46088526 -61.69188721 172.54601192 -58.81640625 175.9296875 C-56.95725348 178.04872183 -55.01038601 180.02447617 -53 182 C-50.40017817 184.55990134 -47.93731602 187.1677954 -45.5625 189.9375 C-42.99334729 192.92801716 -40.30682744 195.73116684 -37.5 198.5 C-34.0928121 201.86114482 -30.92541826 205.33701203 -27.8125 208.96875 C-25.07522352 212.03638744 -22.12769564 214.88189564 -19.19921875 217.765625 C-17.1383752 219.85941277 -15.21650315 222.01395215 -13.3125 224.25 C-10.45909752 227.58341411 -7.45662446 230.30214676 -4 233 C-3.5153125 232.50371094 -3.030625 232.00742188 -2.53125 231.49609375 C2.11583933 226.78644745 6.82219231 222.13191636 12 218 C12.33 218 12.66 218 13 218 C12.54109375 218.51949219 12.0821875 219.03898438 11.609375 219.57421875 C8.31617392 223.31712166 5.07047811 227.06978801 2 231 C5.45493703 229.69583115 8.57769293 228.18492401 11.75390625 226.3046875 C12.6766333 225.76175049 13.59936035 225.21881348 14.55004883 224.65942383 C16.04121216 223.77613403 16.04121216 223.77613403 17.5625 222.875 C26.77697299 217.45643295 36.02466396 212.10394479 45.3125 206.8125 C53.30720411 202.25571552 61.2934708 197.68573195 69.25 193.0625 C77.4556671 188.29527957 85.71517213 183.62807626 94 179 C94 178.34 94 177.68 94 177 C93.34 176.34 92.68 175.68 92 175 C93.65 175 95.3 175 97 175 C97 137.71 97 100.42 97 62 C90.43674588 59.39076006 90.43674588 59.39076006 84 58.3125 C83.236875 58.24675781 82.47375 58.18101563 81.6875 58.11328125 C80.8521875 58.05720703 80.8521875 58.05720703 80 58 C80 57.01 80 56.02 80 55 C81.65 55 83.3 55 85 55 C81.9092722 51.69959235 78.25823526 49.80664897 74.3125 47.6875 C66.93156463 43.65494477 59.63291576 39.4999339 52.375 35.25 C51.36856445 34.66081787 50.36212891 34.07163574 49.32519531 33.46459961 C47.25900788 32.25420335 45.19309195 31.04334352 43.12744141 29.83203125 C36.94338373 26.20945757 30.74827226 22.60580222 24.55541992 18.99829102 C19.96867653 16.32399285 15.38699482 13.64202971 10.8203125 10.93359375 C9.63779907 10.23314941 9.63779907 10.23314941 8.43139648 9.51855469 C6.98147443 8.65847689 5.53296511 7.79601102 4.08618164 6.93066406 C1.40856243 5.34256357 -1.03605375 3.98798208 -4 3 Z " fill="#FCF4F4" transform="translate(122,10)"/>
<path d="M0 0 C4.81756384 0.62068901 9.44712544 1.5206458 14.15625 2.70703125 C15.15344055 2.95703133 15.15344055 2.95703133 16.17077637 3.21208191 C17.57292725 3.56429061 18.97465619 3.91818301 20.37597656 4.27368164 C22.46591762 4.80385405 24.55702517 5.32918067 26.6484375 5.85351562 C35.78868478 8.15179876 44.89741563 10.55714455 54 13 C57.08219257 13.81686059 60.16590847 14.62784237 63.25 15.4375 C64.85026489 15.8580559 66.45052516 16.27862939 68.05078125 16.69921875 C68.85725098 16.9111084 69.6637207 17.12299805 70.49462891 17.34130859 C73.09431827 18.02479738 75.69368436 18.70950405 78.29296875 19.39453125 C79.58509277 19.7349646 79.58509277 19.7349646 80.90332031 20.08227539 C82.55505831 20.51748767 84.20675315 20.95286375 85.85839844 21.38842773 C86.60508789 21.58509033 87.35177734 21.78175293 88.12109375 21.984375 C88.7752124 22.15678711 89.42933105 22.32919922 90.10327148 22.50683594 C92.06582909 23.01711607 94.03199033 23.51120971 96 24 C93.88826492 32.7349042 91.51848192 41.37419941 89 50 C88.71769531 50.96848877 88.71769531 50.96848877 88.4296875 51.95654297 C86.50177881 58.56445002 84.56023289 65.16791097 82.55859375 71.75390625 C79.57965975 81.56824644 76.74545987 91.40735013 74.09204102 101.31518555 C72.50077901 107.24412641 70.7951066 113.1295375 69 119 C68.34 119 67.68 119 67 119 C66.64921387 118.36835938 66.29842773 117.73671875 65.93701172 117.0859375 C59.39814036 105.32571276 52.81367372 93.6035702 46 82 C41.19904339 73.82101605 36.49496294 65.59510188 31.875 57.3125 C27.58973375 49.63010867 23.29649232 41.95337028 18.9375 34.3125 C18.46135254 33.47783203 17.98520508 32.64316406 17.49462891 31.78320312 C14.82402767 27.12290066 12.11155197 22.48995236 9.36328125 17.875 C8.7607251 16.86268311 8.15816895 15.85036621 7.53735352 14.80737305 C6.36638678 12.845312 5.19124272 10.88573659 4.01147461 8.92895508 C3.48690674 8.05134521 2.96233887 7.17373535 2.421875 6.26953125 C1.71949707 5.10321167 1.71949707 5.10321167 1.00292969 3.91333008 C0 2 0 2 0 0 Z " fill="#CE0404" transform="translate(119,46)"/>
<path d="M0 0 C-18.0703125 32.75244141 -18.0703125 32.75244141 -19.07249451 34.56889343 C-19.73189105 35.76405156 -20.39128436 36.95921147 -21.05067444 38.15437317 C-22.69833923 41.14079912 -24.34606187 44.12719314 -25.99389648 47.11352539 C-29.34222617 53.18176988 -32.68958532 59.25054656 -36.03515625 65.3203125 C-42.45059762 76.95853082 -48.87280683 88.59296957 -55.3210144 100.21307373 C-56.28685656 101.95378356 -57.25195891 103.69490382 -58.21704102 105.43603516 C-58.80155029 106.48839355 -59.38605957 107.54075195 -59.98828125 108.625 C-60.49915283 109.54539062 -61.01002441 110.46578125 -61.53637695 111.4140625 C-62.98265724 113.96935871 -64.47803897 116.48917503 -66 119 C-68.32236303 115.51645545 -69.28046115 112.05525223 -70.3984375 108.07543945 C-70.62960266 107.26855179 -70.86076782 106.46166412 -71.09893799 105.63032532 C-71.86272001 102.95940157 -72.61892588 100.2863962 -73.375 97.61328125 C-73.90501253 95.75331245 -74.43545487 93.89346607 -74.96630859 92.03373718 C-76.07903603 88.13154497 -77.18834152 84.22840268 -78.29492188 80.32446289 C-79.70936412 75.33446723 -81.12942964 70.34609623 -82.55172729 65.35833454 C-83.91134034 60.58967783 -85.2683509 55.82028188 -86.625 51.05078125 C-87.01108429 49.69439261 -87.01108429 49.69439261 -87.40496826 48.31060219 C-88.13857574 45.7313101 -88.8703651 43.15150942 -89.6015625 40.5715332 C-89.81564758 39.81954651 -90.02973267 39.06755981 -90.25030518 38.29278564 C-91.59208888 33.54896621 -92.82508397 28.78796418 -94 24 C-86.4788863 21.54328585 -78.93282081 19.43900025 -71.25 17.5625 C-64.94904698 16.02275341 -58.70831926 14.37914362 -52.5 12.5 C-46.37352468 10.64684984 -40.21765524 9.01890727 -34 7.5 C-1.45987095 -0.4530634 -1.45987095 -0.4530634 0 0 Z " fill="#CE0303" transform="translate(114,47)"/>
<path d="M0 0 C43.56 0 87.12 0 132 0 C125.2983871 8.93548387 125.2983871 8.93548387 121.5625 12.5 C118.07711083 15.89781658 114.84691622 19.40889491 111.6796875 23.1015625 C109.50728296 25.55688484 107.18189466 27.83096369 104.84277344 30.12597656 C103.06741117 31.93144566 101.40799798 33.79105275 99.7578125 35.7109375 C96.06940404 39.95270465 92.24309264 44.04736976 88.375 48.125 C86.97617107 49.60509892 85.5777402 51.08557411 84.1796875 52.56640625 C83.48456055 53.30262207 82.78943359 54.03883789 82.07324219 54.79736328 C77.01733078 60.16882263 72.01052067 65.58623537 67 71 C61.98406813 66.8402909 57.4694442 62.48113341 53.0625 57.6875 C51.73982935 56.26279239 50.41690423 54.83832101 49.09375 53.4140625 C48.08054687 52.32013184 48.08054687 52.32013184 47.046875 51.20410156 C43.73686242 47.63983706 40.39920694 44.10175464 37.0625 40.5625 C35.72651137 39.14327729 34.39057415 37.7240062 33.0546875 36.3046875 C30.31162459 33.39159454 27.56654235 30.48041993 24.8203125 27.5703125 C23.44260122 26.10947601 22.06499566 24.64853981 20.6875 23.1875 C20.02484131 22.4850415 19.36218262 21.78258301 18.67944336 21.05883789 C13.73374006 15.80584074 8.86386829 10.48913454 4.0390625 5.125 C2.18099456 2.95060765 2.18099456 2.95060765 0 2 C0 1.34 0 0.68 0 0 Z " fill="#CE0404" transform="translate(51,172)"/>
<path d="M0 0 C0.33 0 0.66 0 1 0 C1 36.63 1 73.26 1 111 C-4.64243109 108.74302757 -9.8898195 106.03638771 -15.25 103.1875 C-16.26835937 102.66607422 -17.28671875 102.14464844 -18.3359375 101.60742188 C-19.78613281 100.83301758 -19.78613281 100.83301758 -21.265625 100.04296875 C-22.15024414 99.57914795 -23.03486328 99.11532715 -23.94628906 98.63745117 C-26 97 -26 97 -26.88110352 94.67114258 C-27.01978815 91.55543706 -26.50215388 89.2149562 -25.63671875 86.21875 C-25.32669922 85.12949219 -25.01667969 84.04023438 -24.69726562 82.91796875 C-24.19743164 81.22607422 -24.19743164 81.22607422 -23.6875 79.5 C-23.36587891 78.37207031 -23.04425781 77.24414062 -22.71289062 76.08203125 C-21.33005422 71.28327659 -19.87796716 66.62884128 -18 62 C-17.48296066 59.866734 -17.07061531 57.73012509 -16.66015625 55.57421875 C-15.92994499 52.72682693 -14.87531945 50.05790303 -13.82250977 47.31713867 C-12.25335774 42.89659195 -11.12813236 38.34664726 -9.9375 33.8125 C-9.42860854 31.88076339 -8.91697935 29.9497455 -8.40234375 28.01953125 C-8.18054443 27.17495361 -7.95874512 26.33037598 -7.73022461 25.46020508 C-6.96960776 22.89760529 -6.00493672 20.47545752 -5 18 C-4.46939887 16.02881682 -3.97039833 14.04891036 -3.5 12.0625 C-2.50496677 7.96619571 -1.43350992 3.96971977 0 0 Z " fill="#CF0909" transform="translate(217,74)"/>
<path d="M0 0 C0.99 0.495 0.99 0.495 2 1 C2.23610578 2.92257563 2.46606715 4.84616679 2.66015625 6.7734375 C3.08790877 9.57595401 4.11660844 12.05155573 5.1796875 14.66796875 C6.20118693 17.57194571 6.84113199 20.49348126 7.5 23.5 C8.29706682 27.12001181 9.10295848 30.56560627 10.5 34 C12.32889294 38.49602848 13.20893925 43.1780991 14.25 47.90625 C14.85406533 50.39801949 15.53793104 52.63491381 16.5 55 C17.89704152 58.43439373 18.70293318 61.87998819 19.5 65.5 C20.62063765 70.58100632 22.08531003 75.17165139 24 80 C24.39069806 81.28700536 24.76638898 82.57868757 25.125 83.875 C25.85860305 86.87511133 25.85860305 86.87511133 27 89 C27.039992 90.99960012 27.04346799 93.00047242 27 95 C23.47928939 96.9992471 19.95548996 98.99292169 16.42871094 100.98144531 C15.22895097 101.65894918 14.03005184 102.33797981 12.83203125 103.01855469 C11.11163831 103.9955328 9.38789591 104.96660532 7.6640625 105.9375 C6.62717285 106.52402344 5.5902832 107.11054688 4.52197266 107.71484375 C2 109 2 109 0 109 C0 73.03 0 37.06 0 0 Z " fill="#D00D0D" transform="translate(17,75)"/>
<path d="M0 0 C3.1095377 0.88931168 5.64027997 2.16315048 8.47338867 3.72363281 C9.54008789 4.30693359 10.60678711 4.89023438 11.70581055 5.49121094 C12.80860352 6.10287109 13.91139648 6.71453125 15.04760742 7.34472656 C16.73080078 8.26801758 16.73080078 8.26801758 18.44799805 9.20996094 C21.21368675 10.7281475 23.97584351 12.25240361 26.73510742 13.78222656 C26.73510742 14.44222656 26.73510742 15.10222656 26.73510742 15.78222656 C25.69676758 16.35384521 25.69676758 16.35384521 24.63745117 16.93701172 C10.25684748 24.86386952 -4.03457685 32.9109558 -18.19458008 41.22753906 C-25.85709773 45.7264705 -33.56775308 50.14159241 -41.27490234 54.56347656 C-48.00415367 58.43731642 -54.63616378 62.41566431 -61.13989258 66.65722656 C-61.84114258 67.02847656 -62.54239258 67.39972656 -63.26489258 67.78222656 C-63.92489258 67.45222656 -64.58489258 67.12222656 -65.26489258 66.78222656 C-64.62422852 66.15316406 -63.98356445 65.52410156 -63.32348633 64.87597656 C-62.45852539 64.02003906 -61.59356445 63.16410156 -60.70239258 62.28222656 C-59.85547852 61.44691406 -59.00856445 60.61160156 -58.13598633 59.75097656 C-55.32407737 56.90438326 -52.72175203 53.89288743 -50.1015625 50.87060547 C-47.05452037 47.40597721 -43.87683114 44.0672877 -40.70239258 40.71972656 C-39.28938231 39.22386879 -37.87662673 37.72777039 -36.46411133 36.23144531 C-35.7607666 35.48685059 -35.05742187 34.74225586 -34.33276367 33.97509766 C-31.21647645 30.6704351 -28.11373 27.35324806 -25.01489258 24.03222656 C-24.44778564 23.42459473 -23.88067871 22.81696289 -23.29638672 22.19091797 C-18.90124985 17.47619232 -14.52680442 12.74251548 -10.17016602 7.9921875 C-8.87463041 6.58312086 -7.57007213 5.182365 -6.26489258 3.78222656 C-5.5971582 2.98171875 -4.92942383 2.18121094 -4.24145508 1.35644531 C-2.26489258 -0.21777344 -2.26489258 -0.21777344 0 0 Z " fill="#CF0909" transform="translate(189.264892578125,173.2177734375)"/>
<path d="M0 0 C2.3671875 2.0625 2.3671875 2.0625 4.875 5 C5.83446017 6.09894782 6.7954863 7.19652979 7.7578125 8.29296875 C8.27375977 8.88770996 8.78970703 9.48245117 9.32128906 10.09521484 C12.38633877 13.57303884 15.5737589 16.9365102 18.75 20.3125 C19.67014893 21.29766602 19.67014893 21.29766602 20.60888672 22.30273438 C23.60412864 25.50045562 26.63287357 28.65111226 29.7421875 31.73828125 C32.05984121 34.0400384 34.27260812 36.37215253 36.375 38.875 C38.96634205 41.8846753 41.67254783 44.71088616 44.5 47.5 C47.94054369 50.89389225 51.14868902 54.40321343 54.29296875 58.0703125 C57.05221581 61.18946136 60.01587975 64.09751222 63 67 C59.71114372 67 58.73483057 66.48245783 55.95703125 64.8671875 C54.73657104 64.16372192 54.73657104 64.16372192 53.49145508 63.44604492 C52.6073999 62.9276001 51.72334473 62.40915527 50.8125 61.875 C49.88268311 61.33657471 48.95286621 60.79814941 47.99487305 60.2434082 C44.99256407 58.50241395 41.99592194 56.75195886 39 55 C37.06264331 53.87084783 35.12514446 52.74193954 33.1875 51.61328125 C30.22757442 49.88816215 27.26844581 48.16172975 24.3112793 46.43188477 C17.87921922 42.6702805 11.42883614 38.94220325 4.96704102 35.23193359 C-6.46831517 28.66426829 -17.79936719 21.96059997 -29 15 C-25.25508406 10.90698434 -20.39064899 8.5463081 -15.625 5.8125 C-14.67882813 5.25369141 -13.73265625 4.69488281 -12.7578125 4.11914062 C-11.84 3.59126953 -10.9221875 3.06339844 -9.9765625 2.51953125 C-9.14205566 2.03589111 -8.30754883 1.55225098 -7.44775391 1.05395508 C-4.70999562 -0.12487023 -2.94935343 -0.36142829 0 0 Z " fill="#CF0B0B" transform="translate(48,173)"/>
<path d="M0 0 C4.40751534 1.76300614 8.27033358 3.82258307 12.3125 6.25 C13.84084039 7.15806637 15.36950487 8.06558741 16.8984375 8.97265625 C17.72053711 9.46137207 18.54263672 9.95008789 19.38964844 10.45361328 C24.05950521 13.22006229 28.74864252 15.9534187 33.4375 18.6875 C34.94546143 19.56728516 34.94546143 19.56728516 36.48388672 20.46484375 C45.2133359 25.55256794 53.96635754 30.59899935 62.72192383 35.64160156 C71.51256748 40.70846345 80.26865107 45.83172243 89 51 C84.47796868 52.41835626 80.86377328 51.13506005 76.4375 49.875 C74.71751752 49.4033919 72.99746344 48.93204491 71.27734375 48.4609375 C70.39933105 48.21698242 69.52131836 47.97302734 68.61669922 47.72167969 C64.58753528 46.61044545 60.54382165 45.55637622 56.5 44.5 C54.91658434 44.08364629 53.33325121 43.66697861 51.75 43.25 C50.96625 43.04375 50.1825 42.8375 49.375 42.625 C47 42 44.625 41.375 42.25 40.75 C41.46544434 40.54358887 40.68088867 40.33717773 39.87255859 40.12451172 C38.29726191 39.70985758 36.72206567 39.29482164 35.14697266 38.87939453 C31.06644029 37.80370232 26.98410809 36.7357097 22.8984375 35.6796875 C22.05732422 35.46119141 21.21621094 35.24269531 20.34960938 35.01757812 C18.76041465 34.6049143 17.17061787 34.19455828 15.58007812 33.78710938 C10.27443521 32.40567543 5.22989787 30.74329929 0 29 C0 19.43 0 9.86 0 0 Z " fill="#CF0909" transform="translate(118,13)"/>
<path d="M0 0 C0 9.24 0 18.48 0 28 C-5.4140625 29.3303125 -5.4140625 29.3303125 -10.9375 30.6875 C-18.17175159 32.48108792 -25.36979352 34.32749431 -32.5 36.5 C-40.20274209 38.84394357 -47.98845295 40.77589683 -55.80932617 42.68383789 C-63.77405627 44.64437707 -71.64813022 46.85154295 -79.48925781 49.25952148 C-80.30362305 49.50259033 -81.11798828 49.74565918 -81.95703125 49.99609375 C-82.66835205 50.21450928 -83.37967285 50.4329248 -84.11254883 50.65795898 C-86 51 -86 51 -89 50 C-88.32122803 49.62302979 -87.64245605 49.24605957 -86.94311523 48.85766602 C-83.77313251 47.09519318 -80.60517079 45.32912462 -77.4375 43.5625 C-76.29611572 42.92739502 -75.15473145 42.29229004 -73.97875977 41.63793945 C-69.02862298 38.87103699 -64.09236573 36.10529385 -59.28125 33.1015625 C-58.61681885 32.68704834 -57.9523877 32.27253418 -57.26782227 31.84545898 C-55.56479347 30.7680326 -53.87366812 29.67185408 -52.18359375 28.57421875 C-48.29551241 26.65164601 -45.30375573 26.32243121 -41 26 C-42.32 27.65 -43.64 29.3 -45 31 C-40.86186295 30.46823005 -38.72917682 28.22067834 -35.75 25.4375 C-34.85796875 24.61121094 -33.9659375 23.78492187 -33.046875 22.93359375 C-32.37140625 22.29550781 -31.6959375 21.65742187 -31 21 C-31.92039063 21.30679688 -32.84078125 21.61359375 -33.7890625 21.9296875 C-36.859375 22.953125 -39.9296875 23.9765625 -43 25 C-40.4935945 22.19044738 -37.70065552 20.52888606 -34.44140625 18.671875 C-33.33216797 18.03636719 -32.22292969 17.40085937 -31.08007812 16.74609375 C-29.90764846 16.08055935 -28.73512207 15.41519534 -27.5625 14.75 C-25.29280887 13.45340484 -23.02327687 12.15653106 -20.75390625 10.859375 C-19.07965576 9.90708008 -19.07965576 9.90708008 -17.37158203 8.93554688 C-15.085915 7.62339856 -12.81144699 6.30156232 -10.54638672 4.95507812 C-8.92821045 3.99504883 -8.92821045 3.99504883 -7.27734375 3.015625 C-6.30917725 2.43586914 -5.34101074 1.85611328 -4.34350586 1.25878906 C-2 0 -2 0 0 0 Z " fill="#D00D0D" transform="translate(115,15)"/>
<path d="M0 0 C0.99 0.33 1.98 0.66 3 1 C3 38.29 3 75.58 3 114 C2.67 114 2.34 114 2 114 C1.505 61.035 1.505 61.035 1 7 C-1.42278075 13.21692563 -1.42278075 13.21692563 -3.00390625 19.41796875 C-3.99015152 24.16802722 -5.42357723 28.70773051 -6.9375 33.3125 C-9.00763344 39.71126494 -10.88517525 46.08459488 -12.359375 52.65234375 C-13 55 -13 55 -13.98144531 56.88720703 C-15.00705329 59.01463068 -15.4922067 60.84079441 -15.9375 63.15234375 C-16.96869588 68.0736858 -18.43560142 72.78798651 -20 77.5625 C-23.64240837 88.06938742 -23.64240837 88.06938742 -25 99 C-17.08 103.29 -9.16 107.58 -1 112 C-1.99 112.99 -2.98 113.98 -4 115 C-4.64549805 114.63124756 -5.29099609 114.26249512 -5.95605469 113.88256836 C-8.88032374 112.22143422 -11.8148604 110.57934372 -14.75 108.9375 C-16.27367187 108.06641602 -16.27367187 108.06641602 -17.828125 107.17773438 C-18.8078125 106.63310547 -19.7875 106.08847656 -20.796875 105.52734375 C-21.69760742 105.01937256 -22.59833984 104.51140137 -23.52636719 103.98803711 C-25.8972289 102.82065365 -25.8972289 102.82065365 -28.17944336 103.21679688 C-30.98472154 104.42362702 -32.69804611 106.38144914 -34.8125 108.5625 C-35.62332031 109.38878906 -36.43414062 110.21507812 -37.26953125 111.06640625 C-39.35724358 113.27245991 -41.35963216 115.54321137 -43.3515625 117.8359375 C-46.98405768 122.01342993 -50.75307714 126.04656209 -54.5625 130.0625 C-58.72811165 134.46097193 -62.88744355 138.86217306 -66.9765625 143.33203125 C-67.60232178 144.01322021 -68.22808105 144.69440918 -68.87280273 145.39624023 C-70.05165767 146.68167266 -71.22592883 147.97132938 -72.39477539 149.26586914 C-75.38452576 152.51563706 -78.1049992 154.83537962 -82 157 C-83.79521298 158.55745537 -83.79521298 158.55745537 -85.3125 160.1875 C-86.6428125 161.5796875 -86.6428125 161.5796875 -88 163 C-88.66 162.67 -89.32 162.34 -90 162 C-89.14277344 161.154375 -88.28554687 160.30875 -87.40234375 159.4375 C-86.24725821 158.2918054 -85.09231815 157.14596412 -83.9375 156 C-83.37611328 155.44699219 -82.81472656 154.89398438 -82.23632812 154.32421875 C-78.58413732 150.69289761 -75.15112382 146.93163453 -71.78393555 143.03564453 C-68.75938428 139.5843364 -65.59473592 136.26704847 -62.4375 132.9375 C-61.03233353 131.44942509 -59.62739016 129.96113949 -58.22265625 128.47265625 C-57.52027832 127.72902832 -56.81790039 126.98540039 -56.09423828 126.21923828 C-52.84698589 122.77816527 -49.6082908 119.3291907 -46.375 115.875 C-45.81997803 115.28452881 -45.26495605 114.69405762 -44.69311523 114.08569336 C-41.00512522 110.14223875 -37.52121923 106.1080891 -34 102 C-54.79 101.67 -75.58 101.34 -97 101 C-97 100.67 -97 100.34 -97 100 C-95.72382812 99.95101562 -94.44765625 99.90203125 -93.1328125 99.8515625 C-91.46351928 99.77653809 -89.79424954 99.70099012 -88.125 99.625 C-87.28324219 99.5940625 -86.44148437 99.563125 -85.57421875 99.53125 C-84.76855469 99.49257812 -83.96289062 99.45390625 -83.1328125 99.4140625 C-82.38918457 99.3826416 -81.64555664 99.3512207 -80.87939453 99.31884766 C-78.75989026 99.14580449 -78.75989026 99.14580449 -77 97 C-75.05111694 96.75949097 -75.05111694 96.75949097 -72.64208984 96.77294922 C-71.74130707 96.77310028 -70.84052429 96.77325134 -69.91244507 96.77340698 C-68.93844757 96.78372955 -67.96445007 96.79405212 -66.9609375 96.8046875 C-65.96494537 96.8075174 -64.96895325 96.81034729 -63.94277954 96.81326294 C-60.75339882 96.8244816 -57.56429622 96.84958919 -54.375 96.875 C-52.21614988 96.88502762 -50.05729537 96.89415385 -47.8984375 96.90234375 C-42.59886301 96.92442639 -37.29945137 96.95792042 -32 97 C-32.51691406 96.18015625 -33.03382813 95.3603125 -33.56640625 94.515625 C-34.22511719 93.43796875 -34.88382813 92.3603125 -35.5625 91.25 C-36.22378906 90.18265625 -36.88507813 89.1153125 -37.56640625 88.015625 C-39 85 -39 85 -38.71484375 82.609375 C-38.47894531 82.07828125 -38.24304688 81.5471875 -38 81 C-34.32117927 84.28466137 -32.24849899 87.66360908 -30 92 C-30 92.66 -30 93.32 -30 94 C-29.34 94 -28.68 94 -28 94 C-27.89300781 92.86691406 -27.78601563 91.73382813 -27.67578125 90.56640625 C-27.07910641 85.81077196 -25.70886619 81.46795657 -24.1875 76.9375 C-22.30037952 71.15511184 -20.51595094 65.39110049 -19 59.5 C-17.56872068 53.97514401 -15.9394617 48.55358173 -14.1875 43.125 C-11.02758823 33.31908024 -8.26009478 23.41334142 -5.515625 13.484375 C-5.12020508 12.0622168 -5.12020508 12.0622168 -4.71679688 10.61132812 C-4.2727806 8.99375386 -3.83960708 7.37310836 -3.42382812 5.74804688 C-3.00588767 4.14946529 -2.51208043 2.5709586 -2 1 C-1.34 0.67 -0.68 0.34 0 0 Z " fill="#F6D5D5" transform="translate(216,71)"/>
<path d="M0 0 C3.30043219 2.58506758 4.83118635 5.14281627 6.0859375 9.0546875 C6.80755199 15.9334542 6.70253927 22.06858801 3.0859375 28.0546875 C0.81314952 30.74070965 -0.77473593 31.85273329 -4.25 32.46875 C-8.62918496 32.71861341 -11.89988792 32.59357789 -15.4140625 29.8046875 C-19.71824884 25.07008252 -20.27747205 21.49648396 -20.2890625 15.1796875 C-20.31355469 14.48488281 -20.33804688 13.79007813 -20.36328125 13.07421875 C-20.39247374 7.90714768 -19.24510476 4.97012314 -15.9140625 1.0546875 C-11.47976089 -2.01726843 -4.84056202 -2.39064492 0 0 Z " fill="#FBEFEF" transform="translate(139.9140625,109.9453125)"/>
<path d="M0 0 C3.18276066 3.00088863 3.18276066 3.00088863 3.375 5.5 C3.1875 8.0625 3.1875 8.0625 1.1875 10.0625 C0.1975 10.0625 -0.7925 10.0625 -1.8125 10.0625 C-1.8125 10.7225 -1.8125 11.3825 -1.8125 12.0625 C-0.4925 12.7225 0.8275 13.3825 2.1875 14.0625 C2.0625 16.375 2.0625 16.375 1.1875 19.0625 C-4.11841551 23.33670972 -11.34276246 22.6859916 -17.8125 22.0625 C-20.91195371 21.06422307 -22.50363315 20.37136685 -24.8125 18.0625 C-24.45950993 14.62084679 -23.76668308 12.99377462 -21.8125 10.0625 C-23.1325 9.4025 -24.4525 8.7425 -25.8125 8.0625 C-26.17826193 4.77064262 -26.1346413 3.47668168 -24.0625 0.8125 C-18.30538931 -3.66525276 -6.02269273 -4.06421319 0 0 Z " fill="#FCF0F0" transform="translate(127.8125,189.9375)"/>
<path d="M0 0 C2.57145623 1.40742255 4.50051532 2.49321815 5.8359375 5.1640625 C6.25376294 8.8409264 6.00293938 10.83005874 4.3359375 14.1640625 C1.20047375 17.926619 -2.15412067 20.35710322 -6.1640625 23.1640625 C-2.2040625 23.4940625 1.7559375 23.8240625 5.8359375 24.1640625 C5.8359375 26.4740625 5.8359375 28.7840625 5.8359375 31.1640625 C-2.7440625 31.1640625 -11.3240625 31.1640625 -20.1640625 31.1640625 C-18.36732509 22.18037543 -10.99761284 16.84389655 -4.1640625 11.1640625 C-4.4940625 9.5140625 -4.8240625 7.8640625 -5.1640625 6.1640625 C-7.14897892 6.43082454 -7.14897892 6.43082454 -9.1640625 7.1640625 C-9.4940625 8.1540625 -9.8240625 9.1440625 -10.1640625 10.1640625 C-13.1340625 10.1640625 -16.1040625 10.1640625 -19.1640625 10.1640625 C-18.99959507 5.88790933 -18.80625404 3.80625404 -15.7265625 0.7265625 C-10.50275622 -1.56458061 -5.41630914 -2.0922205 0 0 Z " fill="#FCF2F2" transform="translate(110.1640625,109.8359375)"/>
<path d="M0 0 C0.99 0.33 1.98 0.66 3 1 C3 38.29 3 75.58 3 114 C2.67 114 2.34 114 2 114 C1.505 61.035 1.505 61.035 1 7 C-1.42278075 13.21692563 -1.42278075 13.21692563 -3.00390625 19.41796875 C-3.99015152 24.16802722 -5.42357723 28.70773051 -6.9375 33.3125 C-9.00763344 39.71126494 -10.88517525 46.08459488 -12.359375 52.65234375 C-12.99417889 54.97866775 -13.92559552 56.85119103 -15 59 C-15.56954767 61.28214587 -16.00105442 63.56808275 -16.4375 65.87890625 C-17 68 -17 68 -19 71 C-19.66 71 -20.32 71 -21 71 C-20.46743615 64.02696402 -18.92390481 57.98308802 -16.6875 51.375 C-14.26716635 44.00520627 -12.04646366 36.66525971 -10.1015625 29.15625 C-8.60930562 23.45588712 -6.99480996 17.79018575 -5.375 12.125 C-5.07335937 11.04686035 -4.77171875 9.9687207 -4.4609375 8.85791016 C-4.1721875 7.85550293 -3.8834375 6.8530957 -3.5859375 5.8203125 C-3.3286084 4.91555176 -3.0712793 4.01079102 -2.80615234 3.07861328 C-2 1 -2 1 0 0 Z " fill="#F2C3C3" transform="translate(216,71)"/>
<path d="M0 0 C2.5 0.375 2.5 0.375 4.14453125 1.51171875 C6.10451815 4.20599468 5.7934983 6.27655276 5.6875 9.5625 C5.66042969 10.64917969 5.63335937 11.73585938 5.60546875 12.85546875 C5.57066406 13.68691406 5.53585938 14.51835938 5.5 15.375 C6.16 15.375 6.82 15.375 7.5 15.375 C7.603125 14.653125 7.70625 13.93125 7.8125 13.1875 C8.55986932 10.13008007 9.78045189 7.99170365 11.5 5.375 C13.975 5.87 13.975 5.87 16.5 6.375 C15.84251427 9.53344818 14.73161861 12.0803221 13.21484375 14.921875 C12.54291992 16.18837891 12.54291992 16.18837891 11.85742188 17.48046875 C11.38884766 18.35316406 10.92027344 19.22585937 10.4375 20.125 C9.96505859 21.01316406 9.49261719 21.90132812 9.00585938 22.81640625 C7.84111686 25.00471037 6.67238288 27.19078248 5.5 29.375 C0.88452177 24.90840817 0.34737398 22.6908768 -0.0625 16.25 C-0.14628906 14.96867187 -0.23007812 13.68734375 -0.31640625 12.3671875 C-0.37699219 11.37976563 -0.43757813 10.39234375 -0.5 9.375 C-1.82 9.375 -3.14 9.375 -4.5 9.375 C-4.396875 10.426875 -4.29375 11.47875 -4.1875 12.5625 C-4.5 16.375 -4.5 16.375 -7 19.3125 C-8.2375 20.3334375 -8.2375 20.3334375 -9.5 21.375 C-11.5 19.375 -11.5 19.375 -12 16.3125 C-11.24548033 10.37065764 -6.57922417 0.98688363 0 0 Z " fill="#FBEFEF" transform="translate(55.5,78.625)"/>
<path d="M0 0 C7.78516459 0.39585583 15.12314002 2.22820422 22 6 C25 10.05809129 25 10.05809129 25 13 C22.03 14.65 19.06 16.3 16 18 C16 19.32 16 20.64 16 22 C12.98968256 22.93423645 12.13349732 23.04449911 9 22 C8.01 22 7.02 22 6 22 C4.5393715 19.35261084 4 18.10551666 4 15 C4.66 15 5.32 15 6 15 C5.566875 14.16855469 5.13375 13.33710937 4.6875 12.48046875 C3.8521875 10.85044922 3.8521875 10.85044922 3 9.1875 C2.443125 8.10855469 1.88625 7.02960938 1.3125 5.91796875 C0 3 0 3 0 0 Z " fill="#FCF1F1" transform="translate(171,92)"/>
<path d="M0 0 C2.17443672 3.26165508 2.98477473 5.93891313 4.06298828 9.70288086 C4.25835175 10.37964371 4.45371521 11.05640656 4.65499878 11.75367737 C5.29875841 13.98924389 5.93477061 16.22692834 6.5703125 18.46484375 C7.01554972 20.02047937 7.46110059 21.57602525 7.9069519 23.13148499 C8.84001008 26.3912917 9.76923768 29.65215976 10.69580078 32.91381836 C11.88346368 37.09341952 13.08058663 41.27024019 14.28059578 45.446311 C15.20234197 48.65796413 16.11904707 51.87103919 17.03423691 55.08456612 C17.47365074 56.62518198 17.91463354 58.16535124 18.35721207 59.70506096 C18.97520223 61.85786216 19.58637915 64.01248459 20.19580078 66.16772461 C20.54506622 67.39333603 20.89433167 68.61894745 21.25418091 69.88169861 C22 73 22 73 22 77 C21.34 77 20.68 77 20 77 C20.33 78.98 20.66 80.96 21 83 C20.34 82.67 19.68 82.34 19 82 C18.43914377 80.00029794 17.9760959 77.9727657 17.5625 75.9375 C16.74881777 72.17166417 15.96488248 68.56633693 14.5 65 C12.67110706 60.50397152 11.79106075 55.8219009 10.75 51.09375 C10.14593467 48.60198051 9.46206896 46.36508619 8.5 44 C6.67110706 39.50397152 5.79106075 34.8219009 4.75 30.09375 C4.14593467 27.60198051 3.46206896 25.36508619 2.5 23 C-0.33242583 16.00838044 -1.54910568 8.37766076 -3 1 C-2.67 1.99 -2.34 2.98 -2 4 C-1.34 4 -0.68 4 0 4 C0 2.68 0 1.36 0 0 Z " fill="#F7DADA" transform="translate(22,79)"/>
<path d="M0 0 C3.85312035 0.40559162 5.37972871 1.27055074 8 4 C8.845625 4.28875 9.69125 4.5775 10.5625 4.875 C13 6 13 6 14.15234375 8.5703125 C14.43207031 9.37210938 14.71179688 10.17390625 15 11 C12.58535319 12.15026086 10.16846682 13.29532205 7.75 14.4375 C7.06808594 14.76298828 6.38617188 15.08847656 5.68359375 15.42382812 C5.01972656 15.73642578 4.35585937 16.04902344 3.671875 16.37109375 C3.0644043 16.65911865 2.45693359 16.94714355 1.83105469 17.24389648 C-0.08888746 18.03670459 -1.9758162 18.54475403 -4 19 C-7 14.375 -7 14.375 -7 11 C-3.7 9.68 -0.4 8.36 3 7 C1.68 5.02 0.36 3.04 -1 1 C-0.67 0.67 -0.34 0.34 0 0 Z " fill="#FBEFEF" transform="translate(166,69)"/>
<path d="M0 0 C0.495 1.485 0.495 1.485 1 3 C0.21496094 3.7734375 -0.57007813 4.546875 -1.37890625 5.34375 C-6.57771126 10.48954823 -11.68014696 15.63407089 -16.42578125 21.20703125 C-18.58164222 23.66246596 -20.90931561 25.92123525 -23.2421875 28.20703125 C-25.12854056 30.13111137 -26.87537799 32.1387002 -28.625 34.1875 C-31.20980557 37.18013045 -33.82635461 39.61976596 -37 42 C-38.76113224 43.5335029 -40.5107731 45.0788878 -42.25390625 46.6328125 C-44.07894515 48.06181388 -45.89849452 49.03431914 -48 50 C-44.45418169 45.76231471 -40.81708533 41.77596232 -36.87597656 37.90673828 C-35.09047958 36.09196324 -33.41831496 34.22593705 -31.7578125 32.296875 C-21.82349435 20.87562731 -11.38404081 9.9825964 0 0 Z " fill="#F9E3E3" transform="translate(174,184)"/>
<path d="M0 0 C-1.31982894 5.44429437 -5.44732502 9.01928638 -10 12 C-11.32 12 -12.64 12 -14 12 C-15.84581796 12.84324482 -15.84581796 12.84324482 -17.5625 14 C-21 16 -21 16 -24 16 C-23.19425815 10.27028016 -18.33247585 7.33477637 -14 4 C-9.35243703 0.97992298 -5.66121222 -0.56612122 0 0 Z " fill="#ECA1A1" transform="translate(186,197)"/>
<path d="M0 0 C7.27497556 -0.51964111 12.13789279 0.85279348 17.8359375 5.49609375 C19.5 7.0625 19.5 7.0625 22 10 C22 10.99 22 11.98 22 13 C16.00643683 13.4994636 12.00321507 12.37130703 7 9 C4.46121697 6.84107276 2.06598501 4.62121848 0 2 C0 1.34 0 0.68 0 0 Z " fill="#F7DBDB" transform="translate(38,187)"/>
<path d="M0 0 C2.93453261 0.36681658 3.86437246 0.86437246 6 3 C6.22555081 5.52792663 6.32438591 7.91055576 6.3125 10.4375 C6.32861328 11.11876953 6.34472656 11.80003906 6.36132812 12.50195312 C6.36424223 15.4772581 6.34612865 17.50469478 4.61328125 19.984375 C3 21 3 21 0.875 20.8125 C-1 20 -1 20 -2 18 C-2.12413998 15.32088601 -2.18515807 12.67916901 -2.1875 10 C-2.19974609 9.26265625 -2.21199219 8.5253125 -2.22460938 7.765625 C-2.22987395 5.84229942 -2.12203447 3.91945737 -2 2 C-1.34 1.34 -0.68 0.68 0 0 Z " fill="#D01010" transform="translate(131,115)"/>
<path d="M0 0 C1.9375 0.3125 1.9375 0.3125 4 1 C6.839387 9.51816099 5.35777619 18.8853742 2 27 C1.34 27 0.68 27 0 27 C0.165 26.030625 0.33 25.06125 0.5 24.0625 C0.85992293 22.04016429 0.85992293 22.04016429 1 20 C0.01 20.33 -0.98 20.66 -2 21 C-4.45027545 13.64917364 -2.78502663 7.01229919 0 0 Z " fill="#F7DBDB" transform="translate(208,133)"/>
<path d="M0 0 C-1.375 2 -1.375 2 -3 4 C-3.66 4 -4.32 4 -5 4 C-5.0721875 4.60457031 -5.144375 5.20914063 -5.21875 5.83203125 C-6.29786829 8.82658449 -7.67624761 9.3061273 -10.5 10.6875 C-15.41678343 12.99711297 -19.59975557 13.73869785 -25 14 C-23.39719273 10.49076998 -22.44221249 9.67193178 -19 8 C-18.236875 7.195625 -17.47375 6.39125 -16.6875 5.5625 C-11.64854969 0.75791947 -6.84848708 -0.41929513 0 0 Z " fill="#ECA5A5" transform="translate(107,30)"/>
<path d="M0 0 C1.72071471 3.2389924 2.98797542 6.53566908 4.1875 10 C4.55230469 11.03125 4.91710937 12.0625 5.29296875 13.125 C5.99337963 15.97307959 6.01828944 17.30185728 5 20 C2.525 19.01 2.525 19.01 0 18 C-0.33 19.65 -0.66 21.3 -1 23 C-0.34 23 0.32 23 1 23 C2.35439668 25.70879335 2.06501451 28.00933268 2 31 C1.34 31 0.68 31 0 31 C-3.32270836 23.93924474 -3.31806054 17.7276932 -3 10 C-1.68 10.33 -0.36 10.66 1 11 C0.4740625 9.6696875 0.4740625 9.6696875 -0.0625 8.3125 C-1.01755602 4.93796874 -0.97151132 3.30313848 0 0 Z " fill="#F8E0E0" transform="translate(23,119)"/>
<path d="M0 0 C2.23707864 1.66055383 4.1796168 3.42903512 6.140625 5.40625 C8.12672479 7.10862125 9.44689625 7.59331091 12 8 C12 8.66 12 9.32 12 10 C3.4495722 9.22268838 -4.26715549 6.70532133 -12 3 C-12.33 2.34 -12.66 1.68 -13 1 C-8.6621597 -1.30447766 -4.61246767 -1.63942221 0 0 Z " fill="#F6D6D6" transform="translate(149,34)"/>
<path d="M0 0 C1.32 0.33 2.64 0.66 4 1 C3.08275725 4.08527108 2.48524863 5.66299784 -0.19921875 7.52734375 C-3.12685601 9.06670114 -5.99044404 10.19729198 -9.125 11.25 C-10.67574219 11.78367188 -10.67574219 11.78367188 -12.2578125 12.328125 C-15 13 -15 13 -18 12 C-15.00955852 8.54296482 -12.89262465 7.44140214 -8.4375 6.5625 C-3.9769276 5.55490464 -3.9769276 5.55490464 -0.8125 2.3125 C-0.544375 1.549375 -0.27625 0.78625 0 0 Z " fill="#F8DCDC" transform="translate(195,182)"/>
<path d="M0 0 C0.66 0.33 1.32 0.66 2 1 C0.55279744 4.69763715 -1.10138797 5.95263664 -4.5703125 7.796875 C-5.91416016 8.52197266 -5.91416016 8.52197266 -7.28515625 9.26171875 C-8.22230469 9.75285156 -9.15945312 10.24398437 -10.125 10.75 C-11.06988281 11.25660156 -12.01476563 11.76320312 -12.98828125 12.28515625 C-15.32033222 13.53362798 -17.65746003 14.77135522 -20 16 C-20.33 14.68 -20.66 13.36 -21 12 C-17.54914225 9.96618904 -14.08820304 7.95020566 -10.625 5.9375 C-9.64015625 5.35677734 -8.6553125 4.77605469 -7.640625 4.17773438 C-6.69960938 3.63310547 -5.75859375 3.08847656 -4.7890625 2.52734375 C-3.91975098 2.01937256 -3.05043945 1.51140137 -2.15478516 0.98803711 C-1.44370605 0.66198486 -0.73262695 0.33593262 0 0 Z " fill="#F9E3E3" transform="translate(42,170)"/>
<path d="M0 0 C2 2 2 2 2.1875 5.0625 C2.01361425 8.71410085 1.66271998 12.28427901 1.22265625 15.91015625 C0.96973833 18.28403501 0.92304954 20.61453566 1 23 C-0.9375 22.2421875 -0.9375 22.2421875 -3 21 C-6.00394437 14.02208757 -2.58917398 6.56738979 0 0 Z " fill="#F1BBBB" transform="translate(30,144)"/>
<path d="M0 0 C5.5371626 0.47712512 10.76341981 1.0763583 16 3 C16.99 4.485 16.99 4.485 18 6 C15.69 6 13.38 6 11 6 C11.99 6.99 12.98 7.98 14 9 C9.80500604 8.46351765 7.45751442 7.14637983 4.1875 4.5 C3.39730469 3.8709375 2.60710938 3.241875 1.79296875 2.59375 C1.20128906 2.0678125 0.60960937 1.541875 0 1 C0 0.67 0 0.34 0 0 Z " fill="#F9E2E2" transform="translate(52,203)"/>
<path d="M0 0 C-1.4317521 5.01113235 -3.98445693 6.94469549 -8 10 C-8.66 9.67 -9.32 9.34 -10 9 C-9.01 8.01 -8.02 7.02 -7 6 C-7.66 5.67 -8.32 5.34 -9 5 C-9 5.66 -9 6.32 -9 7 C-11.31 7 -13.62 7 -16 7 C-11.37744699 1.84407548 -6.98985451 -0.49927532 0 0 Z " fill="#F6D2D2" transform="translate(186,197)"/>
<path d="M0 0 C-1.86150367 1.82837011 -3.73714979 3.63667834 -5.625 5.4375 C-6.40810547 6.2119043 -6.40810547 6.2119043 -7.20703125 7.00195312 C-10.67831497 10.28038775 -13.04955139 11.71010887 -18 12 C-16.35 10.35 -14.7 8.7 -13 7 C-13.66 7 -14.32 7 -15 7 C-15.66 7 -16.32 7 -17 7 C-16.67 6.01 -16.34 5.02 -16 4 C-14.07421875 3.12109375 -14.07421875 3.12109375 -11.6875 2.4375 C-9.2502421 1.72445099 -7.12652625 1.06924906 -4.89453125 -0.15234375 C-3 -1 -3 -1 0 0 Z " fill="#F7DADA" transform="translate(85,36)"/>
<path d="M0 0 C0 0.66 0 1.32 0 2 C0.66 2.33 1.32 2.66 2 3 C1.43410156 3.25394531 0.86820313 3.50789063 0.28515625 3.76953125 C-0.44832031 4.11371094 -1.18179688 4.45789062 -1.9375 4.8125 C-2.66839844 5.14894531 -3.39929688 5.48539063 -4.15234375 5.83203125 C-6.33029489 6.93600134 -6.33029489 6.93600134 -7 10 C-9.31 10.33 -11.62 10.66 -14 11 C-12.5780018 7.4450045 -11.36269949 6.63331118 -8 5 C-6.7315625 3.700625 -6.7315625 3.700625 -5.4375 2.375 C-3 0 -3 0 0 0 Z " fill="#F6D3D3" transform="translate(96,33)"/>
<path d="M0 0 C2.98479194 4.47718792 4 8.63824093 4 14 C3.34 14 2.68 14 2 14 C2.33 15.98 2.66 17.96 3 20 C2.34 19.67 1.68 19.34 1 19 C0.18359375 16.234375 0.18359375 16.234375 -0.5625 12.75 C-0.81128906 11.61046875 -1.06007813 10.4709375 -1.31640625 9.296875 C-1.88939871 6.5334142 -2.45352363 3.76881361 -3 1 C-2.67 1.99 -2.34 2.98 -2 4 C-1.34 4 -0.68 4 0 4 C0 2.68 0 1.36 0 0 Z " fill="#F2C2C2" transform="translate(28,100)"/>
<path d="M0 0 C0 5.52763606 -0.13408261 9.75210733 -2 15 C-2.66 15 -3.32 15 -4 15 C-4.92015848 12.23952457 -5.19267245 10.36637731 -5.25 7.5 C-5.27578125 6.7265625 -5.3015625 5.953125 -5.328125 5.15625 C-4.83583274 1.9211866 -3.37839171 0 0 0 Z " fill="#F7D8D8" transform="translate(210,139)"/>
<path d="M0 0 C2.5 0.25 2.5 0.25 4.5 2.25 C4.5 3.57 4.5 4.89 4.5 6.25 C1.79120665 7.60439668 -0.50933268 7.31501451 -3.5 7.25 C-4.125 4.875 -4.125 4.875 -4.5 2.25 C-2.5 0.25 -2.5 0.25 0 0 Z " fill="#D21A1A" transform="translate(116.5,191.75)"/>
<path d="M0 0 C6.50313209 -0.46450943 10.4174808 0.67424388 16 4 C16 4.66 16 5.32 16 6 C12.37 5.34 8.74 4.68 5 4 C4.67 4.66 4.34 5.32 4 6 C2.62437146 4.71034824 1.29233607 3.37310707 0 2 C0 1.34 0 0.68 0 0 Z " fill="#F9E3E3" transform="translate(38,187)"/>
<path d="M0 0 C0.56131481 6.45512034 -1.36536213 11.15439723 -4 17 C-4.66 17 -5.32 17 -6 17 C-5.69075786 14.89535207 -5.3774944 12.7912947 -5.0625 10.6875 C-4.88847656 9.51574219 -4.71445313 8.34398438 -4.53515625 7.13671875 C-4 4 -4 4 -3 1 C-1 0 -1 0 0 0 Z " fill="#F6D3D3" transform="translate(217,71)"/>
<path d="M0 0 C0.66 0.66 1.32 1.32 2 2 C0.02 5.63 -1.96 9.26 -4 13 C-4.99 13 -5.98 13 -7 13 C-7 9.60574261 -6.26896132 8.29231864 -4.625 5.375 C-4.18414062 4.57835938 -3.74328125 3.78171875 -3.2890625 2.9609375 C-2 1 -2 1 0 0 Z " fill="#F8DDDD" transform="translate(87,97)"/>
<path d="M0 0 C3.03808825 0.40209992 5.54751432 1.66621573 8.25 3.0625 C8.95640625 3.42472656 9.6628125 3.78695312 10.390625 4.16015625 C10.92171875 4.43730469 11.4528125 4.71445313 12 5 C11.01 5.99 10.02 6.98 9 8 C5.37 6.02 1.74 4.04 -2 2 C-1.34 1.34 -0.68 0.68 0 0 Z " fill="#F9E3E3" transform="translate(203,178)"/>
<path d="M0 0 C0.33 0.66 0.66 1.32 1 2 C-2.45792689 3.58076658 -5.1831068 4.51579638 -9 4 C-9.66 3.01 -10.32 2.02 -11 1 C-6.95634201 -1.021829 -4.36886712 -1.19150921 0 0 Z " fill="#F8DEDE" transform="translate(147,34)"/>
<path d="M0 0 C-0.99 0.33 -1.98 0.66 -3 1 C-2.34 1.66 -1.68 2.32 -1 3 C-4.63 3.66 -8.26 4.32 -12 5 C-12 4.34 -12 3.68 -12 3 C-12.99 2.67 -13.98 2.34 -15 2 C-13.25364835 1.46706165 -11.50272348 0.94909337 -9.75 0.4375 C-8.77546875 0.14746094 -7.8009375 -0.14257812 -6.796875 -0.44140625 C-4.03756068 -0.99249836 -2.6087176 -0.93789609 0 0 Z " fill="#F5D0D0" transform="translate(80,53)"/>
<path d="M0 0 C0.33 0.66 0.66 1.32 1 2 C1.66 2 2.32 2 3 2 C2.53199289 6.05606165 2.12046792 9.46588679 0 13 C-0.33 12.34 -0.66 11.68 -1 11 C-1.99 11.495 -1.99 11.495 -3 12 C-2.01 8.04 -1.02 4.08 0 0 Z " fill="#F4CCCC" transform="translate(202,113)"/>
<path d="M0 0 C0 0.99 0 1.98 0 3 C-3.63 3.66 -7.26 4.32 -11 5 C-11 4.34 -11 3.68 -11 3 C-11.66 2.67 -12.32 2.34 -13 2 C-8.46298506 0.54815522 -4.81938524 -0.23509196 0 0 Z " fill="#F9E2E2" transform="translate(38,64)"/>
<path d="M0 0 C0.33 0 0.66 0 1 0 C1.23509196 4.81938524 0.45184478 8.46298506 -1 13 C-1.66 12.34 -2.32 11.68 -3 11 C-3.99 11.495 -3.99 11.495 -5 12 C-4.54965877 10.37276701 -4.08944646 8.74826336 -3.625 7.125 C-3.36976563 6.22007812 -3.11453125 5.31515625 -2.8515625 4.3828125 C-2 2 -2 2 0 0 Z " fill="#F7D9D9" transform="translate(193,150)"/>
<path d="M0 0 C5.45620329 0.09572286 8.10615178 0.61291162 12 4.5625 C13.01826258 5.69213505 14.02488839 6.83291329 15 8 C11.07573665 8 9.17100092 6.55673531 5.8125 4.5625 C4.72582031 3.92441406 3.63914062 3.28632813 2.51953125 2.62890625 C1.68808594 2.09136719 0.85664062 1.55382812 0 1 C0 0.67 0 0.34 0 0 Z " fill="#D84242" transform="translate(96,232)"/>
<path d="M0 0 C1.65 0 3.3 0 5 0 C5.5625 1.9375 5.5625 1.9375 6 4 C5 5 5 5 1.9375 5.0625 C0.4834375 5.0315625 0.4834375 5.0315625 -1 5 C-0.67 3.35 -0.34 1.7 0 0 Z " fill="#D01212" transform="translate(114,203)"/>
<path d="M0 0 C0.99 0 1.98 0 3 0 C4.28317892 3.84953676 4.06643637 6.94738135 4 11 C3.34 11 2.68 11 2 11 C0.80712589 7.12315913 0 4.08378077 0 0 Z " fill="#F9E2E2" transform="translate(24,93)"/>
<path d="M0 0 C7.75 0.875 7.75 0.875 10 2 C10 2.66 10 3.32 10 4 C3.375 4.25 3.375 4.25 0 2 C0 1.34 0 0.68 0 0 Z " fill="#D32323" transform="translate(44,191)"/>
<path d="M0 0 C0.33 0 0.66 0 1 0 C2.42258812 3.82320557 3.24042276 6.91281305 3 11 C1.0625 10.3125 1.0625 10.3125 -1 9 C-2.08835706 6.04588797 -2.25203613 4.62168913 -1.0625 1.6875 C-0.711875 1.130625 -0.36125 0.57375 0 0 Z " fill="#FCF2F2" transform="translate(28,156)"/>
<path d="M0 0 C3.90532683 0.37793485 7.2815754 0.76052513 11 2 C11 2.66 11 3.32 11 4 C9.37419034 3.88601335 7.74932843 3.75844341 6.125 3.625 C5.22007813 3.55539063 4.31515625 3.48578125 3.3828125 3.4140625 C1 3 1 3 -1 1 C-0.67 0.67 -0.34 0.34 0 0 Z " fill="#FCF2F2" transform="translate(119,43)"/>
<path d="M0 0 C0.66 0.33 1.32 0.66 2 1 C1.67 1.33 1.34 1.66 1 2 C1.66 2.66 2.32 3.32 3 4 C-0.3 4.66 -3.6 5.32 -7 6 C-3.375 1.125 -3.375 1.125 0 0 Z " fill="#F1BCBC" transform="translate(184,189)"/>
<path d="M0 0 C2 3 2 3 2 7 C1.34 7 0.68 7 0 7 C0.33 8.98 0.66 10.96 1 13 C-1 12 -1 12 -2.1875 8.6875 C-2.90649268 5.42437937 -3.20286847 4.00717118 -2 1 C-2 1.99 -2 2.98 -2 4 C-1.34 4 -0.68 4 0 4 C0 2.68 0 1.36 0 0 Z " fill="#EB9E9E" transform="translate(42,149)"/>
<path d="M0 0 C2 3 2 3 2 7 C1.34 7 0.68 7 0 7 C0.33 8.98 0.66 10.96 1 13 C-1 12 -1 12 -2.1875 8.6875 C-2.90649268 5.42437937 -3.20286847 4.00717118 -2 1 C-2 1.99 -2 2.98 -2 4 C-1.34 4 -0.68 4 0 4 C0 2.68 0 1.36 0 0 Z " fill="#EB9D9D" transform="translate(38,135)"/>
<path d="M0 0 C2 3 2 3 2 7 C1.34 7 0.68 7 0 7 C0.33 8.98 0.66 10.96 1 13 C-1 12 -1 12 -2.1875 8.6875 C-2.90649268 5.42437937 -3.20286847 4.00717118 -2 1 C-2 1.99 -2 2.98 -2 4 C-1.34 4 -0.68 4 0 4 C0 2.68 0 1.36 0 0 Z " fill="#EB9E9E" transform="translate(34,121)"/>
<path d="M0 0 C1.96301592 3.50538557 2.95902388 7.13351728 4 11 C3.01 11.66 2.02 12.32 1 13 C-0.20504323 10.58991354 -0.35524446 8.61578712 -0.625 5.9375 C-0.76808594 4.58978516 -0.76808594 4.58978516 -0.9140625 3.21484375 C-0.94242188 2.48394531 -0.97078125 1.75304687 -1 1 C-0.67 0.67 -0.34 0.34 0 0 Z " fill="#EFB3B3" transform="translate(23,119)"/>
<path d="M0 0 C2 3 2 3 2 7 C1.34 7 0.68 7 0 7 C0.33 8.98 0.66 10.96 1 13 C-1 12 -1 12 -2.1875 8.6875 C-2.90649268 5.42437937 -3.20286847 4.00717118 -2 1 C-2 1.99 -2 2.98 -2 4 C-1.34 4 -0.68 4 0 4 C0 2.68 0 1.36 0 0 Z " fill="#EB9D9D" transform="translate(28,100)"/>
<path d="M0 0 C2 3 2 3 2 7 C1.34 7 0.68 7 0 7 C0.33 8.98 0.66 10.96 1 13 C-1 12 -1 12 -2.1875 8.6875 C-2.90649268 5.42437937 -3.20286847 4.00717118 -2 1 C-2 1.99 -2 2.98 -2 4 C-1.34 4 -0.68 4 0 4 C0 2.68 0 1.36 0 0 Z " fill="#EB9D9D" transform="translate(22,79)"/>
<path d="M0 0 C0.66 0.33 1.32 0.66 2 1 C1.69106068 2.6256807 1.3777305 4.25052748 1.0625 5.875 C0.88847656 6.77992188 0.71445313 7.68484375 0.53515625 8.6171875 C0 11 0 11 -1 13 C-1.66 13 -2.32 13 -3 13 C-2.343621 8.51474352 -1.29925791 4.33085971 0 0 Z " fill="#F5D1D1" transform="translate(211,147)"/>
<path d="M0 0 C2.64 0.99 5.28 1.98 8 3 C8 3.66 8 4.32 8 5 C6.35 5.66 4.7 6.32 3 7 C0 2.25 0 2.25 0 0 Z " fill="#D52B2B" transform="translate(178,97)"/>
<path d="M0 0 C-0.99 0.66 -1.98 1.32 -3 2 C-3.66 2.66 -4.32 3.32 -5 4 C-6.32 4 -7.64 4 -9 4 C-9.33 3.01 -9.66 2.02 -10 1 C-3.71428571 -1.42857143 -3.71428571 -1.42857143 0 0 Z " fill="#F5D1D1" transform="translate(110,45)"/>
<path d="M0 0 C3 1 3 1 4 3 C4.039992 4.99960012 4.04346799 7.00047242 4 9 C3.34 9 2.68 9 2 9 C0.50178941 5.62902617 0 3.79557881 0 0 Z " fill="#F6D5D5" transform="translate(21,141)"/>
<path d="M0 0 C0.33 0 0.66 0 1 0 C1.25 5.625 1.25 5.625 -1 9 C-1.66 9 -2.32 9 -3 9 C-2.25 2.25 -2.25 2.25 0 0 Z " fill="#FBEAEA" transform="translate(206,106)"/>
<path d="M0 0 C0.99 0.33 1.98 0.66 3 1 C2.34 2.32 1.68 3.64 1 5 C-1.31 5 -3.62 5 -6 5 C-2.25 1.125 -2.25 1.125 0 0 Z " fill="#FBEDED" transform="translate(176,199)"/>
<path d="M0 0 C0.99 0 1.98 0 3 0 C3.33 2.31 3.66 4.62 4 7 C3.01 7.33 2.02 7.66 1 8 C0.67 5.36 0.34 2.72 0 0 Z " fill="#F7D9D9" transform="translate(42,156)"/>
<path d="M0 0 C2 2 2 2 2.125 5.625 C2.08375 6.73875 2.0425 7.8525 2 9 C1.01 9 0.02 9 -1 9 C-0.67 6.03 -0.34 3.06 0 0 Z " fill="#F7DBDB" transform="translate(30,144)"/>
<path d="M0 0 C0.66 0.33 1.32 0.66 2 1 C2 1.99 2 2.98 2 4 C-1.465 5.485 -1.465 5.485 -5 7 C-5 5.68 -5 4.36 -5 3 C-2.625 1.1875 -2.625 1.1875 0 0 Z " fill="#F7DBDB" transform="translate(26,179)"/>
<path d="M0 0 C1.32 0.33 2.64 0.66 4 1 C3.01 2.98 2.02 4.96 1 7 C0.01 7 -0.98 7 -2 7 C-2 3.89448334 -1.4606285 2.64738916 0 0 Z " fill="#F7DBDB" transform="translate(56,150)"/>
<path d="M0 0 C0.66 0.33 1.32 0.66 2 1 C1.67 1.99 1.34 2.98 1 4 C-2.3 4.66 -5.6 5.32 -9 6 C-3.30379747 1.25316456 -3.30379747 1.25316456 0 0 Z " fill="#D52C2C" transform="translate(35,60)"/>
<path d="M0 0 C0.33 0.99 0.66 1.98 1 3 C-0.4375 5.6875 -0.4375 5.6875 -2 8 C-2.66 7.67 -3.32 7.34 -4 7 C-3.6875 4.625 -3.6875 4.625 -3 2 C-2.01 1.34 -1.02 0.68 0 0 Z " fill="#FBEBEB" transform="translate(107,61)"/>
<path d="M0 0 C2.64 0.33 5.28 0.66 8 1 C8 1.66 8 2.32 8 3 C5.36 3 2.72 3 0 3 C0 2.01 0 1.02 0 0 Z " fill="#FAE9E9" transform="translate(145,50)"/>
<path d="M0 0 C1.32 0.66 2.64 1.32 4 2 C2.1875 4.5 2.1875 4.5 0 7 C-0.99 7 -1.98 7 -3 7 C-1.125 2.25 -1.125 2.25 0 0 Z " fill="#F7D9D9" transform="translate(113,47)"/>
<path d="M0 0 C3.91593446 0.78318689 7.36406635 2.39179858 11 4 C9.4375 5.25 9.4375 5.25 7 6 C4.42998985 4.93237266 2.3469597 3.53455057 0 2 C0 1.34 0 0.68 0 0 Z " fill="#D53131" transform="translate(56,208)"/>
<path d="M0 0 C0.495 0.495 0.99 0.99 1.5 1.5 C5.11630158 3.66978095 7.82231616 3.20888419 12 3 C12 3.66 12 4.32 12 5 C10.56589632 5.24954005 9.12739928 5.47392642 7.6875 5.6875 C6.88699219 5.81511719 6.08648437 5.94273437 5.26171875 6.07421875 C3 6 3 6 1.20703125 4.70703125 C0 3 0 3 0 0 Z " fill="#F1BCBC" transform="translate(43,191)"/>
<path d="M0 0 C0.66 0 1.32 0 2 0 C2.125 5.75 2.125 5.75 1 8 C0.34 8 -0.32 8 -1 8 C-1.125 2.25 -1.125 2.25 0 0 Z " fill="#DB4C4C" transform="translate(208,139)"/>
<path d="M0 0 C0.99 0 1.98 0 3 0 C3 0.66 3 1.32 3 2 C3.66 2.33 4.32 2.66 5 3 C0.375 5.125 0.375 5.125 -3 4 C-1.6875 2 -1.6875 2 0 0 Z " fill="#F9E2E2" transform="translate(93,33)"/>
<path d="M0 0 C1.0326802 2.78823655 1.04509293 3.8677274 0.0625 6.75 C-0.288125 7.4925 -0.63875 8.235 -1 9 C-1.66 9 -2.32 9 -3 9 C-2.25 2.25 -2.25 2.25 0 0 Z " fill="#FDF9F9" transform="translate(201,123)"/>
<path d="M0 0 C1.0326802 2.78823655 1.04509293 3.8677274 0.0625 6.75 C-0.288125 7.4925 -0.63875 8.235 -1 9 C-1.66 9 -2.32 9 -3 9 C-2.25 2.25 -2.25 2.25 0 0 Z " fill="#FDF9F9" transform="translate(214,79)"/>
<path d="M0 0 C2.69082872 0.17635452 5.32851446 0.61835921 8 1 C7.67 1.66 7.34 2.32 7 3 C4.125 3.125 4.125 3.125 1 3 C0.34 2.34 -0.32 1.68 -1 1 C-0.67 0.67 -0.34 0.34 0 0 Z " fill="#FCF2F2" transform="translate(176,58)"/>
<path d="M0 0 C2.625 -0.1875 2.625 -0.1875 5 0 C5 0.99 5 1.98 5 3 C2.69 3 0.38 3 -2 3 C-1.34 2.01 -0.68 1.02 0 0 Z " fill="#FAE9E9" transform="translate(96,47)"/>
<path d="M0 0 C2.97 0.495 2.97 0.495 6 1 C4.9375 2.5625 4.9375 2.5625 3 4 C-0.6875 3.6875 -0.6875 3.6875 -4 3 C-2.68 2.67 -1.36 2.34 0 2 C0 1.34 0 0.68 0 0 Z " fill="#F5CECE" transform="translate(130,45)"/>
<path d="M0 0 C2.31 0 4.62 0 7 0 C6.01 1.485 6.01 1.485 5 3 C2.03 2.505 2.03 2.505 -1 2 C-0.67 1.34 -0.34 0.68 0 0 Z " fill="#F9E2E2" transform="translate(100,30)"/>
<path d="M0 0 C-0.33 0.99 -0.66 1.98 -1 3 C-3.64 2.67 -6.28 2.34 -9 2 C-5.86501708 0.14223235 -3.62528568 -0.20140476 0 0 Z " fill="#F5CECE" transform="translate(188,60)"/>
<path d="M0 0 C2.97 0.495 2.97 0.495 6 1 C4.875 2.5625 4.875 2.5625 3 4 C-0.1875 3.6875 -0.1875 3.6875 -3 3 C-2.01 2.67 -1.02 2.34 0 2 C0 1.34 0 0.68 0 0 Z " fill="#F6D4D4" transform="translate(172,56)"/>
<path d="M0 0 C0.33 0.66 0.66 1.32 1 2 C-1.91482778 2.80967438 -3.46113217 3.21845993 -6.3125 2.0625 C-6.869375 1.711875 -7.42625 1.36125 -8 1 C-5.07175348 0.02391783 -3.04386724 -0.08226668 0 0 Z " fill="#E37878" transform="translate(148,37)"/>
</svg>
